# xmcd CD database file
#
# Track frame offsets:
#	150
#	23683
#	47439
#	66884
#	92314
#	120370
#	145523
#	167079
#	188280
#	206557
#	231334
#
# Disc length: 3488 seconds
#
# Revision: 0
# Processed by: cddbd v1.5.2PL0 Copyright (c) Steve Scherf et al.
# Submitted via: CDex 1.51
#
DISCID=7d0d9e0b
DTITLE=Helge Lien Trio - To The Little Radio
DYEAR=2006
DGENRE=Jazz
TTITLE0=Grandfathers Waltz
TTITLE1=Look For The Silver Lining
TTITLE2=Chelsea Bridge
TTITLE3=Little Sunflower
TTITLE4=Penelope
TTITLE5=Ida Lupino
TTITLE6=So In Love
TTITLE7=Love Song
TTITLE8=Amapola
TTITLE9=Sonor
TTITLE10=To The Little Radio
EXTD=YEAR: 2006
EXTT0=
EXTT1=
EXTT2=
EXTT3=
EXTT4=
EXTT5=
EXTT6=
EXTT7=
EXTT8=
EXTT9=
EXTT10=
PLAYORDER=
